<svg
  xmlns="http://www.w3.org/2000/svg"
  width="1280"
  height="840"
  viewBox="0 0 1280 840"
  fill="none"
>
  <defs>
    <linearGradient id="bg" x1="120" y1="40" x2="1130" y2="790">
      <stop offset="0" stop-color="#FFF8F1" />
      <stop offset="1" stop-color="#F2D4C4" />
    </linearGradient>
    <linearGradient id="accent" x1="0" y1="0" x2="1" y2="1">
      <stop offset="0" stop-color="#DA7756" />
      <stop offset="1" stop-color="#EEA57D" />
    </linearGradient>
    <linearGradient id="panel" x1="716" y1="164" x2="1120" y2="640">
      <stop offset="0" stop-color="#2B2421" />
      <stop offset="1" stop-color="#171311" />
    </linearGradient>
    <filter
      id="frameShadow"
      x="60"
      y="96"
      width="1164"
      height="656"
      filterUnits="userSpaceOnUse"
      color-interpolation-filters="sRGB"
    >
      <feDropShadow dx="0" dy="20" stdDeviation="24"
        flood-color="#8F6554" flood-opacity="0.18" />
    </filter>
    <filter
      id="uiShadow"
      x="606"
      y="154"
      width="554"
      height="496"
      filterUnits="userSpaceOnUse"
      color-interpolation-filters="sRGB"
    >
      <feDropShadow dx="0" dy="18" stdDeviation="18"
        flood-color="#0B0807" flood-opacity="0.28" />
    </filter>
  </defs>

  <rect width="1280" height="840" rx="36" fill="url(#bg)" />
  <circle cx="180" cy="690" r="126" fill="#F8E5D9" />
  <circle cx="1094" cy="118" r="92" fill="#F9E8DE" />
  <circle cx="1026" cy="722" r="48" fill="#EEB290" opacity="0.64" />

  <text
    x="112"
    y="96"
    fill="#2D221E"
    font-family="Georgia, 'Times New Roman', serif"
    font-size="42"
    font-weight="700"
  >
    A calmer way to listen to dense papers and articles.
  </text>
  <text
    x="112"
    y="138"
    fill="#6B5850"
    font-family="system-ui, -apple-system, BlinkMacSystemFont, sans-serif"
    font-size="19"
  >
    Speakademic reads papers and articles in clean local voices, trims
    academic noise, and keeps your place.
  </text>

  <g filter="url(#frameShadow)">
    <rect x="82" y="156" width="1118" height="548" rx="34" fill="#FBF3EC" />
    <rect x="82" y="156" width="1118" height="56" rx="34" fill="#F2E1D4" />
    <rect x="82" y="186" width="1118" height="518" fill="#FBF3EC" />
    <circle cx="126" cy="184" r="7" fill="#E89C87" />
    <circle cx="150" cy="184" r="7" fill="#ECC28E" />
    <circle cx="174" cy="184" r="7" fill="#BED6B7" />

    <rect x="126" y="236" width="520" height="410" rx="24" fill="#FFFDF9" />
    <rect x="160" y="270" width="152" height="18" rx="9" fill="#EADBD0" />
    <rect x="160" y="310" width="420" height="10" rx="5" fill="#D9CDC5" />
    <rect x="160" y="334" width="402" height="10" rx="5" fill="#D9CDC5" />
    <rect x="160" y="358" width="430" height="10" rx="5" fill="#D9CDC5" />
    <rect x="160" y="382" width="376" height="10" rx="5" fill="#D9CDC5" />
    <rect x="160" y="424" width="178" height="18" rx="9" fill="#F2D4C4" />
    <rect x="160" y="464" width="422" height="10" rx="5" fill="#D9CDC5" />
    <rect x="160" y="488" width="412" height="10" rx="5" fill="#D9CDC5" />
    <rect x="160" y="512" width="394" height="10" rx="5" fill="#D9CDC5" />
    <rect x="160" y="536" width="328" height="10" rx="5" fill="#D9CDC5" />
    <rect x="160" y="576" width="302" height="14" rx="7" fill="#F0E5DD" />
    <rect x="476" y="576" width="106" height="14" rx="7" fill="#F2C6AF" />
  </g>

  <g filter="url(#uiShadow)">
    <rect x="674" y="176" width="356" height="430" rx="28" fill="url(#panel)" />
    <rect x="674" y="176" width="356" height="4" rx="2" fill="url(#accent)" />
    <rect x="1044" y="176" width="86" height="458" rx="26" fill="url(#panel)" />
    <rect x="1044" y="176" width="86" height="4" rx="2" fill="url(#accent)" />

    <text
      x="706"
      y="214"
      fill="#FAF9F6"
      font-family="system-ui, -apple-system, BlinkMacSystemFont, sans-serif"
      font-size="15"
      font-weight="700"
      letter-spacing="0.08em"
    >
      SPEAKADEMIC
    </text>
    <rect x="930" y="194" width="68" height="22" rx="11"
      fill="rgba(250,249,246,0.06)" />
    <text
      x="949"
      y="208"
      fill="#FAF9F6"
      font-family="system-ui, -apple-system, BlinkMacSystemFont, sans-serif"
      font-size="10"
      font-weight="700"
      letter-spacing="0.06em"
    >
      OUTLINE
    </text>

    <rect x="706" y="248" width="56" height="56" rx="28" fill="#2D2725" />
    <rect x="774" y="248" width="66" height="66" rx="33" fill="url(#accent)" />
    <rect x="856" y="248" width="56" height="56" rx="28" fill="#2D2725" />
    <rect x="928" y="248" width="56" height="56" rx="28" fill="#2D2725" />
    <polygon points="800,268 800,294 822,281" fill="#FFF7F2" />
    <rect x="723" y="262" width="10" height="28" rx="5" fill="#F4C2AA" />
    <rect x="742" y="262" width="10" height="28" rx="5" fill="#F4C2AA" />
    <rect x="874" y="260" width="8" height="32" rx="4" fill="#F4C2AA" />
    <polygon points="944,281 968,266 968,296" fill="#F4C2AA" />
    <rect x="994" y="248" width="12" height="66" rx="6" fill="#211C1A" />

    <rect x="706" y="342" width="292" height="10" rx="5" fill="#3C3531" />
    <rect x="706" y="342" width="118" height="10" rx="5" fill="url(#accent)" />
    <rect x="706" y="338" width="18" height="18" rx="9" fill="#F2D4C4" opacity="0.22" />
    <rect x="760" y="338" width="22" height="18" rx="9" fill="#FFF9F2" opacity="0.10" />
    <rect x="852" y="338" width="34" height="18" rx="9" fill="#FFF9F2" opacity="0.08" />

    <rect x="706" y="376" width="292" height="122" rx="18" fill="#231F1D" />
    <text
      x="726"
      y="408"
      fill="#D8CEC8"
      font-family="system-ui, -apple-system, BlinkMacSystemFont, sans-serif"
      font-size="15"
    >
      With the massive returns we see from scaling compute,
    </text>
    <rect x="720" y="424" width="264" height="28" rx="14"
      fill="rgba(218,119,86,0.20)" />
    <text
      x="732"
      y="442"
      fill="#FAF9F6"
      font-family="system-ui, -apple-system, BlinkMacSystemFont, sans-serif"
      font-size="15"
      font-weight="600"
    >
      the prevailing paradigm assumes the right roles
    </text>
    <text
      x="726"
      y="474"
      fill="#9F948D"
      font-family="system-ui, -apple-system, BlinkMacSystemFont, sans-serif"
      font-size="15"
    >
      are enough to recover the qualitative texture of mind.
    </text>

    <text
      x="706"
      y="530"
      fill="#D7CEC8"
      font-family="system-ui, -apple-system, BlinkMacSystemFont, sans-serif"
      font-size="12"
      font-weight="700"
      letter-spacing="0.06em"
    >
      VOICE
    </text>
    <text
      x="854"
      y="530"
      fill="#D7CEC8"
      font-family="system-ui, -apple-system, BlinkMacSystemFont, sans-serif"
      font-size="12"
      font-weight="700"
      letter-spacing="0.06em"
    >
      SPEED
    </text>
    <rect x="706" y="542" width="122" height="36" rx="14" fill="#2A2522" />
    <rect x="852" y="542" width="78" height="36" rx="14" fill="#2A2522" />
    <text
      x="734"
      y="565"
      fill="#FAF9F6"
      font-family="system-ui, -apple-system, BlinkMacSystemFont, sans-serif"
      font-size="14"
    >
      Bella
    </text>
    <text
      x="876"
      y="565"
      fill="#FAF9F6"
      font-family="system-ui, -apple-system, BlinkMacSystemFont, sans-serif"
      font-size="14"
    >
      1.25x
    </text>

    <text
      x="1066"
      y="214"
      fill="#FAF9F6"
      font-family="system-ui, -apple-system, BlinkMacSystemFont, sans-serif"
      font-size="14"
      font-weight="700"
    >
      Outline
    </text>
    <text
      x="1066"
      y="236"
      fill="#A8A29E"
      font-family="system-ui, -apple-system, BlinkMacSystemFont, sans-serif"
      font-size="12"
    >
      Jump by section
    </text>
    <rect x="1058" y="260" width="58" height="42" rx="14" fill="rgba(250,249,246,0.04)" />
    <text x="1070" y="286" fill="#FAF9F6"
      font-family="system-ui, -apple-system, BlinkMacSystemFont, sans-serif"
      font-size="13" font-weight="600">1 Introduction</text>
    <text x="1078" y="326" fill="#9F948D"
      font-family="system-ui, -apple-system, BlinkMacSystemFont, sans-serif"
      font-size="12">2 Abstraction</text>
    <rect x="1066" y="340" width="54" height="52" rx="16"
      fill="rgba(218,119,86,0.16)" />
    <text x="1074" y="360" fill="#FAF9F6"
      font-family="system-ui, -apple-system, BlinkMacSystemFont, sans-serif"
      font-size="12" font-weight="700">2.1</text>
    <text x="1074" y="380" fill="#FAF9F6"
      font-family="system-ui, -apple-system, BlinkMacSystemFont, sans-serif"
      font-size="12" font-weight="700">Map vs.</text>
    <text x="1074" y="398" fill="#FAF9F6"
      font-family="system-ui, -apple-system, BlinkMacSystemFont, sans-serif"
      font-size="12" font-weight="700">Territory</text>
    <text x="1082" y="430" fill="#9F948D"
      font-family="system-ui, -apple-system, BlinkMacSystemFont, sans-serif"
      font-size="12">2.2 Section</text>
    <text x="1078" y="462" fill="#9F948D"
      font-family="system-ui, -apple-system, BlinkMacSystemFont, sans-serif"
      font-size="12">3 Circularity</text>
    <text x="1082" y="494" fill="#9F948D"
      font-family="system-ui, -apple-system, BlinkMacSystemFont, sans-serif"
      font-size="12">3.1 Causation</text>
    <text x="1078" y="526" fill="#9F948D"
      font-family="system-ui, -apple-system, BlinkMacSystemFont, sans-serif"
      font-size="12">4 Policy</text>
  </g>

  <rect x="112" y="686" width="178" height="38" rx="19" fill="#FFF8F2" />
  <text
    x="142"
    y="710"
    fill="#7D5C4F"
    font-family="system-ui, -apple-system, BlinkMacSystemFont, sans-serif"
    font-size="15"
    font-weight="600"
  >
    PDFs + articles
  </text>

  <rect x="308" y="686" width="268" height="38" rx="19" fill="#FFF8F2" />
  <text
    x="334"
    y="710"
    fill="#7D5C4F"
    font-family="system-ui, -apple-system, BlinkMacSystemFont, sans-serif"
    font-size="15"
    font-weight="600"
  >
    Citation + equation cleanup
  </text>

  <rect x="594" y="686" width="198" height="38" rx="19" fill="#FFF8F2" />
  <text
    x="624"
    y="710"
    fill="#7D5C4F"
    font-family="system-ui, -apple-system, BlinkMacSystemFont, sans-serif"
    font-size="15"
    font-weight="600"
  >
    Many voice profiles
  </text>
</svg>
