<svg
  xmlns="http://www.w3.org/2000/svg"
  width="1200"
  height="760"
  viewBox="0 0 1200 760"
  fill="none"
>
  <defs>
    <linearGradient id="bg" x1="90" y1="20" x2="1110" y2="730">
      <stop offset="0" stop-color="#FFF8F1" />
      <stop offset="1" stop-color="#F3D7C9" />
    </linearGradient>
    <linearGradient id="accent" x1="0" y1="0" x2="1" y2="1">
      <stop offset="0" stop-color="#DA7756" />
      <stop offset="1" stop-color="#F0A077" />
    </linearGradient>
    <linearGradient id="panel" x1="650" y1="214" x2="1008" y2="584">
      <stop offset="0" stop-color="#2B2421" />
      <stop offset="1" stop-color="#171311" />
    </linearGradient>
    <filter
      id="sceneShadow"
      x="94"
      y="138"
      width="1012"
      height="528"
      filterUnits="userSpaceOnUse"
      color-interpolation-filters="sRGB"
    >
      <feDropShadow dx="0" dy="18" stdDeviation="24"
        flood-color="#946857" flood-opacity="0.18" />
    </filter>
    <filter
      id="panelShadow"
      x="622"
      y="200"
      width="382"
      height="392"
      filterUnits="userSpaceOnUse"
      color-interpolation-filters="sRGB"
    >
      <feDropShadow dx="0" dy="18" stdDeviation="18"
        flood-color="#0D0908" flood-opacity="0.24" />
    </filter>
  </defs>

  <rect width="1200" height="760" rx="36" fill="url(#bg)" />

  <text
    x="102"
    y="88"
    fill="#2C211D"
    font-family="Georgia, 'Times New Roman', serif"
    font-size="34"
    font-weight="700"
  >
    The player stays readable while the paper keeps moving.
  </text>
  <text
    x="102"
    y="124"
    fill="#6D5951"
    font-family="system-ui, -apple-system, BlinkMacSystemFont, sans-serif"
    font-size="18"
  >
    Follow-scroll playback and cleanup of citation and equation noise
  </text>
  <text
    x="102"
    y="150"
    fill="#6D5951"
    font-family="system-ui, -apple-system, BlinkMacSystemFont, sans-serif"
    font-size="18"
  >
    keep long listening sessions seamless.
  </text>

  <g filter="url(#sceneShadow)">
    <rect x="126" y="176" width="948" height="442" rx="30" fill="#FBF3EC" />
    <rect x="126" y="176" width="948" height="52" rx="30" fill="#F2E1D4" />
    <rect x="126" y="204" width="948" height="414" fill="#FBF3EC" />
    <circle cx="162" cy="202" r="7" fill="#E89C87" />
    <circle cx="186" cy="202" r="7" fill="#ECC28E" />
    <circle cx="210" cy="202" r="7" fill="#BED6B7" />

    <rect x="162" y="236" width="584" height="356" rx="26" fill="#FFFDF9" />
    <rect x="194" y="270" width="180" height="18" rx="9" fill="#EADCD1" />
    <rect x="194" y="312" width="460" height="10" rx="5" fill="#D8CCC3" />
    <rect x="194" y="336" width="438" height="10" rx="5" fill="#D8CCC3" />
    <rect x="194" y="360" width="476" height="10" rx="5" fill="#D8CCC3" />
    <rect x="194" y="384" width="404" height="10" rx="5" fill="#D8CCC3" />
    <rect x="194" y="428" width="192" height="18" rx="9" fill="#F2D5C5" />
    <rect x="194" y="470" width="470" height="10" rx="5" fill="#D8CCC3" />
    <rect x="194" y="494" width="446" height="10" rx="5" fill="#D8CCC3" />
    <rect x="194" y="518" width="458" height="10" rx="5" fill="#D8CCC3" />
    <rect x="194" y="542" width="380" height="10" rx="5" fill="#D8CCC3" />
  </g>

  <g filter="url(#panelShadow)">
    <rect x="666" y="226" width="292" height="334" rx="28" fill="url(#panel)" />
    <rect x="666" y="226" width="292" height="4" rx="2" fill="url(#accent)" />

    <text
      x="694"
      y="264"
      fill="#FAF9F6"
      font-family="system-ui, -apple-system, BlinkMacSystemFont, sans-serif"
      font-size="14"
      font-weight="700"
      letter-spacing="0.08em"
    >
      SPEAKADEMIC
    </text>
    <rect x="862" y="242" width="56" height="20" rx="10"
      fill="rgba(250,249,246,0.06)" />
    <text
      x="876"
      y="255"
      fill="#FAF9F6"
      font-family="system-ui, -apple-system, BlinkMacSystemFont, sans-serif"
      font-size="9"
      font-weight="700"
      letter-spacing="0.06em"
    >
      SECTIONS
    </text>

    <rect x="694" y="292" width="48" height="48" rx="24" fill="#2D2724" />
    <rect x="758" y="286" width="60" height="60" rx="30" fill="url(#accent)" />
    <rect x="834" y="292" width="48" height="48" rx="24" fill="#2D2724" />
    <rect x="898" y="292" width="48" height="48" rx="24" fill="#2D2724" />
    <rect x="710" y="305" width="7" height="22" rx="3.5" fill="#F4C2AA" />
    <rect x="724" y="305" width="7" height="22" rx="3.5" fill="#F4C2AA" />
    <polygon points="780,302 780,330 804,316" fill="#FFF7F2" />
    <rect x="855" y="304" width="6" height="24" rx="3" fill="#F4C2AA" />
    <polygon points="913,316 933,303 933,329" fill="#F4C2AA" />

    <rect x="694" y="364" width="224" height="8" rx="4" fill="#3A3431" />
    <rect x="694" y="364" width="116" height="8" rx="4" fill="url(#accent)" />
    <rect x="694" y="360" width="52" height="16" rx="8" fill="#FFF9F2" opacity="0.09" />
    <rect x="784" y="360" width="40" height="16" rx="8" fill="#F2D4C4" opacity="0.18" />
    <rect x="846" y="360" width="22" height="16" rx="8" fill="#FFF9F2" opacity="0.08" />

    <rect x="694" y="392" width="236" height="114" rx="18" fill="#231F1D" />
    <text
      x="712"
      y="424"
      fill="#D8CEC8"
      font-family="system-ui, -apple-system, BlinkMacSystemFont, sans-serif"
      font-size="14"
    >
      The transcript stays in view while the paper moves.
    </text>
    <rect x="708" y="438" width="204" height="26" rx="13"
      fill="rgba(218,119,86,0.20)" />
    <text
      x="722"
      y="455"
      fill="#FAF9F6"
      font-family="system-ui, -apple-system, BlinkMacSystemFont, sans-serif"
      font-size="13"
      font-weight="600"
    >
      Catch the active sentence and keep your place.
    </text>
    <text
      x="712"
      y="486"
      fill="#9F948D"
      font-family="system-ui, -apple-system, BlinkMacSystemFont, sans-serif"
      font-size="14"
    >
      Citations and equations stay out of the way.
    </text>

    <text
      x="694"
      y="528"
      fill="#D7CEC8"
      font-family="system-ui, -apple-system, BlinkMacSystemFont, sans-serif"
      font-size="11"
      font-weight="700"
      letter-spacing="0.08em"
    >
      VOICE
    </text>
    <text
      x="816"
      y="528"
      fill="#D7CEC8"
      font-family="system-ui, -apple-system, BlinkMacSystemFont, sans-serif"
      font-size="11"
      font-weight="700"
      letter-spacing="0.08em"
    >
      SPEED
    </text>
    <rect x="694" y="540" width="100" height="30" rx="14" fill="#2A2522" />
    <rect x="816" y="540" width="74" height="30" rx="14" fill="#2A2522" />
    <text
      x="718"
      y="559"
      fill="#FAF9F6"
      font-family="system-ui, -apple-system, BlinkMacSystemFont, sans-serif"
      font-size="13"
    >
      Bella
    </text>
    <text
      x="840"
      y="559"
      fill="#FAF9F6"
      font-family="system-ui, -apple-system, BlinkMacSystemFont, sans-serif"
      font-size="13"
    >
      1.0x
    </text>
  </g>

  <rect x="770" y="188" width="220" height="38" rx="19" fill="#FFF8F2" />
  <text
    x="798"
    y="212"
    fill="#7C5D50"
    font-family="system-ui, -apple-system, BlinkMacSystemFont, sans-serif"
    font-size="14"
    font-weight="600"
  >
    Cleanup + follow-scroll
  </text>
</svg>
