<svg
  xmlns="http://www.w3.org/2000/svg"
  width="1200"
  height="760"
  viewBox="0 0 1200 760"
  fill="none"
>
  <defs>
    <linearGradient id="bg" x1="90" y1="20" x2="1110" y2="730">
      <stop offset="0" stop-color="#FFF8F1" />
      <stop offset="1" stop-color="#F3D7C9" />
    </linearGradient>
    <linearGradient id="accent" x1="0" y1="0" x2="1" y2="1">
      <stop offset="0" stop-color="#DA7756" />
      <stop offset="1" stop-color="#F0A077" />
    </linearGradient>
    <linearGradient id="panel" x1="620" y1="170" x2="1030" y2="590">
      <stop offset="0" stop-color="#2B2421" />
      <stop offset="1" stop-color="#171311" />
    </linearGradient>
    <filter
      id="cardShadow"
      x="96"
      y="136"
      width="1018"
      height="540"
      filterUnits="userSpaceOnUse"
      color-interpolation-filters="sRGB"
    >
      <feDropShadow dx="0" dy="18" stdDeviation="24"
        flood-color="#946857" flood-opacity="0.18" />
    </filter>
  </defs>

  <rect width="1200" height="760" rx="36" fill="url(#bg)" />
  <text
    x="102"
    y="88"
    fill="#2C211D"
    font-family="Georgia, 'Times New Roman', serif"
    font-size="34"
    font-weight="700"
  >
    The player stays readable while the paper keeps moving.
  </text>
  <text
    x="102"
    y="124"
    fill="#6D5951"
    font-family="system-ui, -apple-system, BlinkMacSystemFont, sans-serif"
    font-size="18"
  >
    The transcript follows playback, section progress stays visible, and the
    overlay still feels light on top of the page.
  </text>

  <g filter="url(#cardShadow)">
    <rect x="126" y="164" width="948" height="470" rx="30" fill="#FBF3EC" />
    <rect x="162" y="206" width="466" height="378" rx="22" fill="#FFFDF9" />
    <rect x="196" y="242" width="160" height="18" rx="9" fill="#E8DACE" />
    <rect x="196" y="282" width="384" height="10" rx="5" fill="#D9CDC5" />
    <rect x="196" y="306" width="408" height="10" rx="5" fill="#D9CDC5" />
    <rect x="196" y="330" width="394" height="10" rx="5" fill="#D9CDC5" />
    <rect x="196" y="354" width="352" height="10" rx="5" fill="#D9CDC5" />
    <rect x="196" y="396" width="170" height="18" rx="9" fill="#F2D5C5" />
    <rect x="196" y="436" width="398" height="10" rx="5" fill="#D9CDC5" />
    <rect x="196" y="460" width="374" height="10" rx="5" fill="#D9CDC5" />
    <rect x="196" y="484" width="406" height="10" rx="5" fill="#D9CDC5" />
    <rect x="196" y="508" width="310" height="10" rx="5" fill="#D9CDC5" />

    <rect x="580" y="224" width="346" height="356" rx="28" fill="url(#panel)" />
    <rect x="580" y="224" width="346" height="4" rx="2" fill="url(#accent)" />
    <text
      x="608"
      y="260"
      fill="#FAF9F6"
      font-family="system-ui, -apple-system, BlinkMacSystemFont, sans-serif"
      font-size="14"
      font-weight="700"
      letter-spacing="0.08em"
    >
      SPEAKADEMIC
    </text>
    <rect x="824" y="240" width="72" height="22" rx="11"
      fill="rgba(250,249,246,0.05)" />
    <text
      x="844"
      y="254"
      fill="#FAF9F6"
      font-family="system-ui, -apple-system, BlinkMacSystemFont, sans-serif"
      font-size="10"
      font-weight="700"
      letter-spacing="0.06em"
    >
      OUTLINE
    </text>

    <rect x="608" y="286" width="52" height="52" rx="26" fill="#2D2724" />
    <rect x="674" y="280" width="64" height="64" rx="32" fill="url(#accent)" />
    <rect x="754" y="286" width="52" height="52" rx="26" fill="#2D2724" />
    <rect x="820" y="286" width="52" height="52" rx="26" fill="#2D2724" />
    <polygon points="698,301 698,323 717,312" fill="#FFF7F2" />
    <rect x="626" y="300" width="8" height="24" rx="4" fill="#F4C2AA" />
    <rect x="642" y="300" width="8" height="24" rx="4" fill="#F4C2AA" />
    <rect x="772" y="299" width="7" height="26" rx="3.5" fill="#F4C2AA" />
    <polygon points="834,312 854,299 854,325" fill="#F4C2AA" />

    <rect x="608" y="360" width="282" height="8" rx="4" fill="#3B3532" />
    <rect x="608" y="360" width="158" height="8" rx="4" fill="url(#accent)" />
    <rect x="608" y="356" width="56" height="16" rx="8" fill="#FFF9F2" opacity="0.08" />
    <rect x="706" y="356" width="44" height="16" rx="8" fill="#F2D4C4" opacity="0.18" />

    <rect x="608" y="392" width="282" height="112" rx="18" fill="#231F1D" />
    <text
      x="626"
      y="422"
      fill="#D8CEC8"
      font-family="system-ui, -apple-system, BlinkMacSystemFont, sans-serif"
      font-size="15"
    >
      The transcript stays in view so you can glance back,
    </text>
    <rect x="620" y="438" width="248" height="26" rx="13"
      fill="rgba(218,119,86,0.20)" />
    <text
      x="632"
      y="455"
      fill="#FAF9F6"
      font-family="system-ui, -apple-system, BlinkMacSystemFont, sans-serif"
      font-size="15"
      font-weight="600"
    >
      catch the active sentence, and keep listening.
    </text>
    <text
      x="626"
      y="486"
      fill="#9F948D"
      font-family="system-ui, -apple-system, BlinkMacSystemFont, sans-serif"
      font-size="15"
    >
      No citation clutter. No scrolling drift.
    </text>

    <text
      x="608"
      y="532"
      fill="#D7CEC8"
      font-family="system-ui, -apple-system, BlinkMacSystemFont, sans-serif"
      font-size="12"
      font-weight="700"
      letter-spacing="0.06em"
    >
      VOICE
    </text>
    <text
      x="744"
      y="532"
      fill="#D7CEC8"
      font-family="system-ui, -apple-system, BlinkMacSystemFont, sans-serif"
      font-size="12"
      font-weight="700"
      letter-spacing="0.06em"
    >
      SPEED
    </text>
    <rect x="608" y="544" width="108" height="32" rx="14" fill="#2A2522" />
    <rect x="744" y="544" width="74" height="32" rx="14" fill="#2A2522" />
    <text x="632" y="565" fill="#FAF9F6"
      font-family="system-ui, -apple-system, BlinkMacSystemFont, sans-serif"
      font-size="13">Bella</text>
    <text x="768" y="565" fill="#FAF9F6"
      font-family="system-ui, -apple-system, BlinkMacSystemFont, sans-serif"
      font-size="13">1.0x</text>
  </g>

  <rect x="884" y="150" width="174" height="38" rx="19" fill="#FFF8F2" />
  <text
    x="914"
    y="174"
    fill="#7C5D50"
    font-family="system-ui, -apple-system, BlinkMacSystemFont, sans-serif"
    font-size="14"
    font-weight="600"
  >
    Follow-scroll transcript
  </text>
</svg>
